<?xml version="1.0" encoding="iso-8859-1"?>
<!-- Generator: Adobe Illustrator 19.0.0, SVG Export Plug-In . SVG Version: 6.00 Build 0)  -->
<svg version="1.1" id="Capa_1" xmlns="http://www.w3.org/2000/svg" xmlns:xlink="http://www.w3.org/1999/xlink" x="0px" y="0px"
	 viewBox="0 0 511.999 511.999" style="enable-background:new 0 0 511.999 511.999;" xml:space="preserve">
<g>
	<g>
		<path d="M484.912,435.705c-67.318-64.386-120.248-113.63-161.65-153.375c19.369-20.507,43.083-50.952,58.218-89.101
			c21.148-53.268,12.428-115.849-29.697-155.369C324.663,12.423,290.07,0,256.034,0c-58.869,0-111.779,37.179-131.66,92.514
			c-8.606,23.943-9.412,51.007-2.327,78.268c8.464,32.53,28.119,64.67,67.169,109.467L27.079,435.714
			c-1.941,1.86-3.049,4.423-3.079,7.112c-0.029,2.689,1.027,5.274,2.928,7.175l59.062,59.061c3.938,3.937,10.33,3.896,14.218-0.079
			l154.94-158.41c40.955,41.842,93.374,93.637,156.628,158.414c3.887,3.981,10.283,4.023,14.224,0.085L485.071,450
			c1.902-1.902,2.958-4.491,2.928-7.181C487.969,440.129,486.855,437.565,484.912,435.705z M338.1,52.444
			c34.416,32.288,44.148,84.653,24.793,133.409c-14.417,36.338-37.933,65.45-54.03,82.584
			c-15.259-14.811-27.771-27.285-38.479-38.364c35.73-34.738,65.638-80.247,65.638-130.09c0-22.573-5.351-43.931-15.148-60.977
			C326.966,42.925,332.735,47.413,338.1,52.444z M256.034,19.997c33.065,0,52.276,26.976,58.122,59.143
			c-14.538-12.183-33.093-19.149-52.843-19.149h-10.559c-19.764,0-38.322,6.968-52.861,19.158
			C203.536,47.874,222.239,19.997,256.034,19.997z M250.755,79.987h10.559c22.505,0,42.97,11.936,54.082,31.332
			c-3.72,34.03-24.425,70.715-58.758,104.224c-40.784-44.142-57.036-72.42-60.059-104.063
			C207.671,91.988,228.179,79.987,250.755,79.987z M92.981,487.773l-44.692-44.692l154.234-147.887
			c10.827,11.926,23.399,25.27,38.671,41.047L92.981,487.773z M419.01,487.781c-175.507-179.352-259.135-251.03-277.609-322.032
			c-6.067-23.346-5.448-46.332,1.792-66.473c9.085-25.287,26.224-46.152,47.892-60.117c-9.74,17.018-15.038,38.288-15.038,60.825
			c0,84.886,71.801,136.983,287.651,343.108L419.01,487.781z"/>
	</g>
</g>
<g>
</g>
<g>
</g>
<g>
</g>
<g>
</g>
<g>
</g>
<g>
</g>
<g>
</g>
<g>
</g>
<g>
</g>
<g>
</g>
<g>
</g>
<g>
</g>
<g>
</g>
<g>
</g>
<g>
</g>
</svg>
